<?xml version="1.0" encoding="UTF-8" standalone="no"?>
<!DOCTYPE svg PUBLIC "-//W3C//DTD SVG 1.1//EN"
 "http://www.w3.org/Graphics/SVG/1.1/DTD/svg11.dtd">
<!-- Generated by graphviz version 2.38.0 (20140413.2041)
 -->
<!-- Title: G Pages: 1 -->
<svg width="267pt" height="276pt"
 viewBox="0.00 0.00 267.00 276.00" xmlns="http://www.w3.org/2000/svg" xmlns:xlink="http://www.w3.org/1999/xlink">
<g id="graph0" class="graph" transform="scale(1 1) rotate(0) translate(4 272)">
<title>G</title>
<polygon fill="white" stroke="none" points="-4,4 -4,-272 263,-272 263,4 -4,4"/>
<text text-anchor="middle" x="129.5" y="-6.6" font-family="Times,serif" font-size="8.00">PhpDependencyAnalysis by Marco Muths (v1.2.0)</text>
<!-- RestRequest -->
<g id="node1" class="node"><title>RestRequest</title>
<path fill="#9999cc" stroke="black" d="M78.5,-53C78.5,-53 34.5,-53 34.5,-53 28.5,-53 22.5,-47 22.5,-41 22.5,-41 22.5,-29 22.5,-29 22.5,-23 28.5,-17 34.5,-17 34.5,-17 78.5,-17 78.5,-17 84.5,-17 90.5,-23 90.5,-29 90.5,-29 90.5,-41 90.5,-41 90.5,-47 84.5,-53 78.5,-53"/>
<text text-anchor="middle" x="56.5" y="-32.5" font-family="Times,serif" font-size="10.00" fill="#000033">RestRequest</text>
</g>
<!-- FenixEduException -->
<g id="node2" class="node"><title>FenixEduException</title>
<path fill="#9999cc" stroke="black" d="M93.5,-96C93.5,-96 19.5,-96 19.5,-96 13.5,-96 7.5,-90 7.5,-84 7.5,-84 7.5,-72 7.5,-72 7.5,-66 13.5,-60 19.5,-60 19.5,-60 93.5,-60 93.5,-60 99.5,-60 105.5,-66 105.5,-72 105.5,-72 105.5,-84 105.5,-84 105.5,-90 99.5,-96 93.5,-96"/>
<text text-anchor="middle" x="56.5" y="-75.5" font-family="Times,serif" font-size="10.00" fill="#000033">FenixEduException</text>
</g>
<!-- Exception -->
<g id="node3" class="node"><title>Exception</title>
<path fill="#9999cc" stroke="black" d="M239.5,-96C239.5,-96 204.5,-96 204.5,-96 198.5,-96 192.5,-90 192.5,-84 192.5,-84 192.5,-72 192.5,-72 192.5,-66 198.5,-60 204.5,-60 204.5,-60 239.5,-60 239.5,-60 245.5,-60 251.5,-66 251.5,-72 251.5,-72 251.5,-84 251.5,-84 251.5,-90 245.5,-96 239.5,-96"/>
<text text-anchor="middle" x="222" y="-75.5" font-family="Times,serif" font-size="10.00" fill="#000033">Exception</text>
</g>
<!-- FenixEduException&#45;&gt;Exception -->
<g id="edge1" class="edge"><title>FenixEduException&#45;&gt;Exception</title>
<path fill="none" stroke="#999999" stroke-dasharray="5,2" d="M105.671,-78C131.439,-78 162.594,-78 186.024,-78"/>
<polygon fill="#999999" stroke="#999999" points="186.111,-80.1001 192.111,-78 186.111,-75.9001 186.111,-80.1001"/>
</g>
<!-- Controller -->
<g id="node4" class="node"><title>Controller</title>
<path fill="#9999cc" stroke="black" d="M74,-139C74,-139 39,-139 39,-139 33,-139 27,-133 27,-127 27,-127 27,-115 27,-115 27,-109 33,-103 39,-103 39,-103 74,-103 74,-103 80,-103 86,-109 86,-115 86,-115 86,-127 86,-127 86,-133 80,-139 74,-139"/>
<text text-anchor="middle" x="56.5" y="-118.5" font-family="Times,serif" font-size="10.00" fill="#000033">Controller</text>
</g>
<!-- CASAuthenticator -->
<g id="node5" class="node"><title>CASAuthenticator</title>
<path fill="#9999cc" stroke="black" d="M91,-225C91,-225 22,-225 22,-225 16,-225 10,-219 10,-213 10,-213 10,-201 10,-201 10,-195 16,-189 22,-189 22,-189 91,-189 91,-189 97,-189 103,-195 103,-201 103,-201 103,-213 103,-213 103,-219 97,-225 91,-225"/>
<text text-anchor="middle" x="56.5" y="-204.5" font-family="Times,serif" font-size="10.00" fill="#000033">CASAuthenticator</text>
</g>
<!-- Authenticator -->
<g id="node6" class="node"><title>Authenticator</title>
<path fill="#9999cc" stroke="black" d="M247,-203C247,-203 197,-203 197,-203 191,-203 185,-197 185,-191 185,-191 185,-179 185,-179 185,-173 191,-167 197,-167 197,-167 247,-167 247,-167 253,-167 259,-173 259,-179 259,-179 259,-191 259,-191 259,-197 253,-203 247,-203"/>
<text text-anchor="middle" x="222" y="-182.5" font-family="Times,serif" font-size="10.00" fill="#000033">Authenticator</text>
</g>
<!-- CASAuthenticator&#45;&gt;Authenticator -->
<g id="edge2" class="edge"><title>CASAuthenticator&#45;&gt;Authenticator</title>
<path fill="none" stroke="#999999" stroke-dasharray="5,2" d="M103.044,-200.872C126.723,-197.686 155.482,-193.816 178.674,-190.695"/>
<polygon fill="#999999" stroke="#999999" points="179.084,-192.759 184.751,-189.878 178.524,-188.597 179.084,-192.759"/>
</g>
<!-- FileManager -->
<g id="node7" class="node"><title>FileManager</title>
<path fill="#9999cc" stroke="black" d="M78.5,-268C78.5,-268 34.5,-268 34.5,-268 28.5,-268 22.5,-262 22.5,-256 22.5,-256 22.5,-244 22.5,-244 22.5,-238 28.5,-232 34.5,-232 34.5,-232 78.5,-232 78.5,-232 84.5,-232 90.5,-238 90.5,-244 90.5,-244 90.5,-256 90.5,-256 90.5,-262 84.5,-268 78.5,-268"/>
<text text-anchor="middle" x="56.5" y="-247.5" font-family="Times,serif" font-size="10.00" fill="#000033">FileManager</text>
</g>
<!-- FenixEduAuthenticator -->
<g id="node8" class="node"><title>FenixEduAuthenticator</title>
<path fill="#9999cc" stroke="black" d="M101,-182C101,-182 12,-182 12,-182 6,-182 0,-176 0,-170 0,-170 0,-158 0,-158 0,-152 6,-146 12,-146 12,-146 101,-146 101,-146 107,-146 113,-152 113,-158 113,-158 113,-170 113,-170 113,-176 107,-182 101,-182"/>
<text text-anchor="middle" x="56.5" y="-161.5" font-family="Times,serif" font-size="10.00" fill="#000033">FenixEduAuthenticator</text>
</g>
<!-- FenixEduAuthenticator&#45;&gt;Authenticator -->
<g id="edge3" class="edge"><title>FenixEduAuthenticator&#45;&gt;Authenticator</title>
<path fill="none" stroke="#999999" stroke-dasharray="5,2" d="M113.31,-171.168C134.772,-173.925 158.895,-177.023 178.861,-179.588"/>
<polygon fill="#999999" stroke="#999999" points="178.698,-181.684 184.917,-180.365 179.233,-177.518 178.698,-181.684"/>
</g>
</g>
</svg>
